<svg viewBox="0 0 64 64" fill="none" xmlns="http://www.w3.org/2000/svg">
  <defs>
    <clipPath id="pin-clip">
      <path d="M32 6C21.5 6 13 14.5 13 25c0 15.2 19 33 19 33s19-17.8 19-33C51 14.5 42.5 6 32 6Z"/>
    </clipPath>
  </defs>
  <rect x="13" y="28" width="38" height="30" fill="currentColor" opacity="0.25" clip-path="url(#pin-clip)"/>
  <path d="M32 6C21.5 6 13 14.5 13 25c0 15.2 19 33 19 33s19-17.8 19-33C51 14.5 42.5 6 32 6Z" stroke="currentColor" stroke-width="2.5" stroke-linejoin="round"/>
  <path d="M20 28h24" stroke="currentColor" stroke-width="2.5" stroke-linecap="round"/>
  <path d="M24 28c0-4.4 3.6-8 8-8s8 3.6 8 8" stroke="currentColor" stroke-width="2.5" stroke-linecap="round"/>
</svg>
